<svg width="8" height="6" viewBox="0 0 8 6" fill="none" xmlns="http://www.w3.org/2000/svg">
<mask id="path-1-inside-1_10_129" fill="white">
<path d="M4.77689 5.83856C4.67416 5.73094 4.62485 5.6009 4.62896 5.44843C4.63341 5.29596 4.687 5.16592 4.78973 5.0583L6.24077 3.53812H0.513644C0.368111 3.53812 0.246035 3.48646 0.147416 3.38314C0.0491387 3.28018 0 3.15247 0 3C0 2.84753 0.0491387 2.71964 0.147416 2.61632C0.246035 2.51336 0.368111 2.46188 0.513644 2.46188H6.24077L4.77689 0.928251C4.67416 0.820627 4.62279 0.692735 4.62279 0.544574C4.62279 0.396771 4.67416 0.269058 4.77689 0.161435C4.87961 0.0538115 5.00169 0 5.14311 0C5.28419 0 5.4061 0.0538115 5.50883 0.161435L7.85875 2.62332C7.91011 2.67713 7.94658 2.73543 7.96815 2.79821C7.98938 2.86099 8 2.92825 8 3C8 3.07175 7.98938 3.13901 7.96815 3.20179C7.94658 3.26457 7.91011 3.32287 7.85875 3.37668L5.49599 5.85202C5.40182 5.95067 5.28419 6 5.14311 6C5.00169 6 4.87961 5.94619 4.77689 5.83856Z"/>
</mask>
<path d="M4.77689 5.83856C4.67416 5.73094 4.62485 5.6009 4.62896 5.44843C4.63341 5.29596 4.687 5.16592 4.78973 5.0583L6.24077 3.53812H0.513644C0.368111 3.53812 0.246035 3.48646 0.147416 3.38314C0.0491387 3.28018 0 3.15247 0 3C0 2.84753 0.0491387 2.71964 0.147416 2.61632C0.246035 2.51336 0.368111 2.46188 0.513644 2.46188H6.24077L4.77689 0.928251C4.67416 0.820627 4.62279 0.692735 4.62279 0.544574C4.62279 0.396771 4.67416 0.269058 4.77689 0.161435C4.87961 0.0538115 5.00169 0 5.14311 0C5.28419 0 5.4061 0.0538115 5.50883 0.161435L7.85875 2.62332C7.91011 2.67713 7.94658 2.73543 7.96815 2.79821C7.98938 2.86099 8 2.92825 8 3C8 3.07175 7.98938 3.13901 7.96815 3.20179C7.94658 3.26457 7.91011 3.32287 7.85875 3.37668L5.49599 5.85202C5.40182 5.95067 5.28419 6 5.14311 6C5.00169 6 4.87961 5.94619 4.77689 5.83856Z" fill="black" fill-opacity="0.66"/>
<path d="M4.62896 5.44843L-5.36678 5.15658L-5.36711 5.1678L-5.36741 5.17902L4.62896 5.44843ZM4.78973 5.0583L12.0234 11.963L4.78973 5.0583ZM6.24077 3.53812L13.4744 10.4428L29.6103 -6.46188H6.24077V3.53812ZM0.147416 3.38314L7.38106 -3.52153L0.147416 3.38314ZM0.147416 2.61632L-7.07422 -4.3009L-7.08624 -4.28835L-7.09821 -4.27577L0.147416 2.61632ZM6.24077 2.46188V12.4619H29.6103L13.4744 -4.44278L6.24077 2.46188ZM4.77689 0.928251L12.0105 -5.97641L12.0105 -5.97641L4.77689 0.928251ZM5.50883 0.161435L12.7425 -6.74323L12.7425 -6.74323L5.50883 0.161435ZM7.85875 2.62332L0.625103 9.52798L0.625104 9.52798L7.85875 2.62332ZM7.96815 2.79821L17.4411 -0.405305L17.4333 -0.42845L17.4254 -0.451556L7.96815 2.79821ZM7.96815 3.20179L17.4254 6.45156L17.4333 6.42845L17.4411 6.4053L7.96815 3.20179ZM7.85875 3.37668L0.625104 -3.52798L0.625104 -3.52798L7.85875 3.37668ZM5.49599 5.85202L12.7296 12.7567L5.49599 5.85202ZM12.0105 -1.0661C12.817 -0.221225 13.5316 0.844548 14.0132 2.11487C14.493 3.38012 14.6549 4.61885 14.6253 5.71784L-5.36741 5.17902C-5.4413 7.92036 -4.45074 10.6542 -2.45676 12.7432L12.0105 -1.0661ZM14.6247 5.74028C14.559 7.98903 13.6735 10.2342 12.0234 11.963L-2.44392 -1.84637C-4.29949 0.0976183 -5.29222 2.6029 -5.36678 5.15658L14.6247 5.74028ZM12.0234 11.963L13.4744 10.4428L-0.992873 -3.36655L-2.44392 -1.84637L12.0234 11.963ZM6.24077 -6.46188H0.513644V13.5381H6.24077V-6.46188ZM0.513644 -6.46188C1.64797 -6.46188 2.92227 -6.25495 4.21009 -5.70998C5.502 -5.16328 6.56125 -4.38039 7.38106 -3.52153L-7.08623 10.2878C-5.0607 12.4098 -2.30636 13.5381 0.513644 13.5381V-6.46188ZM7.38106 -3.52153C9.19262 -1.62366 10 0.781984 10 3H-10C-10 5.52295 -9.09434 8.18402 -7.08623 10.2878L7.38106 -3.52153ZM10 3C10 5.21798 9.19312 7.61599 7.39304 9.50841L-7.09821 -4.27577C-9.09485 -2.17671 -10 0.477085 -10 3H10ZM7.36905 9.53355C6.5474 10.3914 5.48796 11.171 4.19859 11.7147C2.91368 12.2566 1.64344 12.4619 0.513644 12.4619V-7.53812C-2.29478 -7.53812 -5.0456 -6.41879 -7.07422 -4.3009L7.36905 9.53355ZM0.513644 12.4619H6.24077V-7.53812H0.513644V12.4619ZM13.4744 -4.44278L12.0105 -5.97641L-2.45676 7.83291L-0.992874 9.36655L13.4744 -4.44278ZM12.0105 -5.97641C12.7666 -5.1843 13.4563 -4.18195 13.9409 -2.97526C14.4258 -1.76782 14.6228 -0.561612 14.6228 0.544574H-5.37721C-5.37721 3.27638 -4.32681 5.87376 -2.45676 7.83292L12.0105 -5.97641ZM14.6228 0.544574C14.6228 1.65409 14.4247 2.86183 13.9391 4.06932C13.4539 5.27561 12.7645 6.27625 12.0105 7.0661L-2.45676 -6.74323C-4.32198 -4.78914 -5.37721 -2.19383 -5.37721 0.544574H14.6228ZM12.0105 7.0661C11.258 7.85444 10.2535 8.62902 8.97905 9.19079C7.6937 9.75738 6.37643 10 5.14311 10V-10C2.11346 -10 -0.577093 -8.71245 -2.45676 -6.74323L12.0105 7.0661ZM5.14311 10C3.90615 10 2.58729 9.75603 1.30207 9.18871C0.028295 8.62643 -0.974518 7.85215 -1.72481 7.0661L12.7425 -6.74323C10.8681 -8.7069 8.17972 -10 5.14311 -10V10ZM-1.72482 7.0661L0.625103 9.52798L15.0924 -4.28135L12.7425 -6.74323L-1.72482 7.0661ZM0.625104 9.52798C-0.198955 8.66466 -0.988095 7.50586 -1.48907 6.04797L17.4254 -0.451556C16.8813 -2.03501 16.0192 -3.3104 15.0924 -4.28135L0.625104 9.52798ZM-1.50483 6.00172C-1.86028 4.95063 -2 3.92775 -2 3H18C18 1.92875 17.8391 0.771339 17.4411 -0.405305L-1.50483 6.00172ZM-2 3C-2 2.07225 -1.86028 1.04937 -1.50483 -0.0017176L17.4411 6.4053C17.8391 5.22866 18 4.07125 18 3H-2ZM-1.48907 -0.0479691C-0.988095 -1.50586 -0.198955 -2.66466 0.625104 -3.52798L15.0924 10.2813C16.0192 9.3104 16.8813 8.03501 17.4254 6.45156L-1.48907 -0.0479691ZM0.625104 -3.52798L-1.73766 -1.05265L12.7296 12.7567L15.0924 10.2813L0.625104 -3.52798ZM-1.73766 -1.05265C-0.900929 -1.92924 0.172667 -2.71494 1.4698 -3.25891C2.75955 -3.79978 4.02696 -4 5.14311 -4V16C7.91113 16 10.6766 14.9075 12.7296 12.7567L-1.73766 -1.05265ZM5.14311 -4C6.37645 -4 7.69373 -3.75737 8.97907 -3.19078C10.2535 -2.62901 11.258 -1.85444 12.0105 -1.0661L-2.45676 12.7432C-0.57712 14.7124 2.11342 16 5.14311 16V-4Z" fill="black" fill-opacity="0.66" mask="url(#path-1-inside-1_10_129)"/>
</svg>
